<?xml version="1.0" encoding="utf-8"?>
<svg width="938.4762px" height="189.70013px" viewBox="0 0 938.4762 189.70013" version="1.1" xmlns:xlink="http://www.w3.org/1999/xlink" xmlns="http://www.w3.org/2000/svg">
  <defs>
    <linearGradient gradientUnits="userSpaceOnUse" x1="0" y1="0" x2="81.454346" y2="84.761215" id="gradient_1">
      <stop offset="0%" stop-color="#F15A29" />
      <stop offset="70.35202%" stop-color="#F28B40" />
      <stop offset="100%" stop-color="#F7E93C" />
    </linearGradient>
    <linearGradient gradientUnits="userSpaceOnUse" x1="32.584454" y1="1.8678214E-06" x2="65.1689" y2="117.52288" id="gradient_2">
      <stop offset="0%" stop-color="#F15A29" />
      <stop offset="70.35202%" stop-color="#F28B40" />
      <stop offset="100%" stop-color="#F7E93C" />
    </linearGradient>
    <linearGradient gradientUnits="userSpaceOnUse" x1="51.81911" y1="79.24802" x2="-3.7544823" y2="-5.4537377" id="gradient_3">
      <stop offset="0%" stop-color="#F15A29" />
      <stop offset="70.35202%" stop-color="#F28B40" />
      <stop offset="100%" stop-color="#F7E93C" />
    </linearGradient>
    <linearGradient gradientUnits="userSpaceOnUse" x1="-11.620311" y1="-48.768055" x2="32.58726" y2="117.53107" id="gradient_4">
      <stop offset="0%" stop-color="#F15A29" />
      <stop offset="70.35202%" stop-color="#F28B40" />
      <stop offset="100%" stop-color="#F7E93C" />
    </linearGradient>
  </defs>
  <g id="Group-5">
    <g id="VULCAN" fill="#FFFFFF" transform="translate(296.47607 0)">
      <path d="M6.82 22.5L21.89 99.5L32.56 99.5L47.74 22.5L37.51 22.5L27.28 74.53L17.05 22.5L6.82 22.5ZM62.59 97.19Q64.9 99.5 68.2 99.5L93.17 99.5Q96.47 99.5 98.78 97.19Q101.09 94.88 101.09 91.58L101.09 22.5L90.86 22.5L90.86 85.42Q90.86 86.96 89.705 88.115Q88.55 89.27 86.9 89.27L74.47 89.27Q72.82 89.27 71.665 88.115Q70.51 86.96 70.51 85.42L70.51 22.5L60.28 22.5L60.28 91.58Q60.28 94.88 62.59 97.19ZM114.73 99.5L114.73 22.5L124.96 22.5L124.96 89.27L151.25 89.27L151.25 99.5L114.73 99.5ZM166.87 97.19Q169.29 99.5 172.37 99.5L197.34 99.5Q200.75 99.5 203.005 97.19Q205.26 94.88 205.26 91.58L205.26 74.86L195.03 77.28L195.03 85.31Q195.03 87.07 193.985 88.17Q192.94 89.27 191.18 89.27L178.64 89.27Q177.1 89.27 175.89 88.17Q174.68 87.07 174.68 85.31L174.68 36.69Q174.68 35.15 175.89 33.94Q177.1 32.73 178.64 32.73L191.18 32.73Q192.94 32.73 193.985 33.94Q195.03 35.15 195.03 36.69L195.03 47.03L205.26 44.72L205.26 30.42Q205.26 27.23 203.005 24.865Q200.75 22.5 197.34 22.5L172.37 22.5Q169.29 22.5 166.87 24.865Q164.45 27.23 164.45 30.42L164.45 91.58Q164.45 94.88 166.87 97.19ZM266.75 22.5L266.75 99.5L276.98 99.5L276.98 48.13L297.44 99.5L307.67 99.5L307.67 22.5L297.44 22.5L297.44 73.87L276.98 22.5L266.75 22.5ZM214.5 99.61L230.01 22.61L240.02 22.61L255.31 99.61L245.08 99.61L242.11 85.2L227.48 85.2L224.73 99.61L214.5 99.61ZM229.46 75.08L240.35 75.08L235.07 47.69L229.46 75.08Z" />
    </g>
    <g id="NODE--SETUP" fill="#5A5A60" transform="translate(308.4762 116.700134)">
      <path d="M3.72 54L3.72 12L9.3 12L20.46 40.02L20.46 12L26.04 12L26.04 54L20.46 54L9.3 25.98L9.3 54L3.72 54ZM37.68 54Q36 54 34.74 52.74Q33.48 51.48 33.48 49.62L33.48 16.38Q33.48 14.52 34.74 13.26Q36 12 37.68 12L51.3 12Q53.22 12 54.45 13.26Q55.68 14.52 55.68 16.38L55.68 49.62Q55.68 51.48 54.45 52.74Q53.22 54 51.3 54L37.68 54ZM63.12 12L63.12 54L81.12 54Q82.86 54 84.12 52.74Q85.38 51.48 85.38 49.68L85.38 16.32Q85.38 14.52 84.12 13.26Q82.86 12 81.12 12L63.12 12ZM92.82 54L92.82 12L115.14 12L115.14 17.52L98.4 17.52L98.4 27.96L109.56 27.96L108.3 33.54L98.4 33.54L98.4 48.42L115.14 48.42L115.14 54L92.82 54ZM140.52 52.74Q141.78 54 143.58 54L157.2 54Q159 54 160.26 52.74Q161.52 51.48 161.52 49.68L161.52 32.28Q161.52 30.48 160.26 29.22Q159 27.96 157.2 27.96L146.94 27.96Q146.1 27.96 145.47 27.33Q144.84 26.7 144.84 25.8L144.84 19.74Q144.84 18.84 145.47 18.21Q146.1 17.58 146.94 17.58L153.78 17.58Q154.68 17.58 155.31 18.21Q155.94 18.84 155.94 19.74L155.94 21.48L161.52 22.8L161.52 16.32Q161.52 14.52 160.26 13.26Q159 12 157.2 12L143.58 12Q141.78 12 140.52 13.26Q139.26 14.52 139.26 16.32L139.26 29.22Q139.26 31.02 140.52 32.28Q141.78 33.54 143.58 33.54L153.78 33.54Q154.68 33.54 155.31 34.17Q155.94 34.8 155.94 35.7L155.94 46.26Q155.94 47.16 155.31 47.79Q154.68 48.42 153.78 48.42L146.94 48.42Q146.1 48.42 145.47 47.79Q144.84 47.16 144.84 46.26L144.84 41.64L139.26 40.38L139.26 49.68Q139.26 51.48 140.52 52.74ZM168.84 54L168.84 12L191.16 12L191.16 17.52L174.42 17.52L174.42 27.96L185.58 27.96L184.32 33.54L174.42 33.54L174.42 48.42L191.16 48.42L191.16 54L168.84 54ZM206.7 17.58L206.7 54L212.28 54L212.28 17.58L220.62 17.58L220.62 12L198.36 12L198.36 17.58L206.7 17.58ZM232.14 54Q230.34 54 229.08 52.74Q227.82 51.48 227.82 49.68L227.82 12L233.4 12L233.4 46.32Q233.4 47.16 234.03 47.79Q234.66 48.42 235.56 48.42L242.34 48.42Q243.24 48.42 243.87 47.79Q244.5 47.16 244.5 46.32L244.5 12L250.08 12L250.08 49.68Q250.08 51.48 248.82 52.74Q247.56 54 245.76 54L232.14 54ZM257.52 12L257.52 54L263.1 54L263.1 33.54L275.52 33.54Q277.26 33.54 278.55 32.28Q279.84 31.02 279.84 29.22L279.84 16.32Q279.84 14.52 278.55 13.26Q277.26 12 275.52 12L257.52 12ZM41.1 48.48L47.88 48.48Q48.9 48.48 49.53 47.82Q50.16 47.16 50.16 46.2L50.16 19.8Q50.16 18.78 49.53 18.15Q48.9 17.52 47.88 17.52L41.1 17.52Q40.26 17.52 39.63 18.15Q39 18.78 39 19.8L39 46.2Q39 47.16 39.63 47.82Q40.26 48.48 41.1 48.48ZM77.7 48.42L68.7 48.42L68.7 17.58L77.7 17.58Q78.54 17.58 79.2 18.21Q79.86 18.84 79.86 19.74L79.86 46.26Q79.86 47.16 79.2 47.79Q78.54 48.42 77.7 48.42ZM272.1 27.96L263.1 27.96L263.1 17.58L272.1 17.58Q273 17.58 273.63 18.21Q274.26 18.84 274.26 19.68L274.26 25.8Q274.26 26.7 273.63 27.33Q273 27.96 272.1 27.96Z" />
    </g>
    <path d="M251.375 17.5121L251.377 17.5121Q251.574 17.5121 251.769 17.5313Q251.965 17.5506 252.157 17.5889Q252.35 17.6273 252.538 17.6843Q252.726 17.7413 252.908 17.8165Q253.089 17.8917 253.262 17.9843Q253.436 18.0769 253.599 18.186Q253.762 18.2952 253.914 18.4198Q254.066 18.5444 254.205 18.6834Q254.344 18.8223 254.468 18.9741Q254.593 19.126 254.702 19.2894Q254.811 19.4527 254.904 19.626Q254.997 19.7992 255.072 19.9807Q255.147 20.1622 255.204 20.3502Q255.261 20.5382 255.299 20.7309Q255.338 20.9236 255.357 21.1191Q255.376 21.3146 255.376 21.5111L255.376 175.713Q255.376 175.91 255.357 176.105Q255.338 176.301 255.299 176.493Q255.261 176.686 255.204 176.874Q255.147 177.062 255.072 177.243Q254.997 177.425 254.904 177.598Q254.811 177.771 254.702 177.935Q254.593 178.098 254.468 178.25Q254.344 178.402 254.205 178.541Q254.066 178.68 253.914 178.804Q253.762 178.929 253.599 179.038Q253.436 179.147 253.262 179.24Q253.089 179.332 252.908 179.408Q252.726 179.483 252.538 179.54Q252.35 179.597 252.157 179.635Q251.965 179.674 251.769 179.693Q251.574 179.712 251.377 179.712L251.375 179.712Q251.179 179.712 250.983 179.693Q250.788 179.674 250.595 179.635Q250.402 179.597 250.214 179.54Q250.026 179.483 249.845 179.408Q249.663 179.332 249.49 179.24Q249.317 179.147 249.153 179.038Q248.99 178.929 248.838 178.804Q248.686 178.68 248.547 178.541Q248.409 178.402 248.284 178.25Q248.159 178.098 248.05 177.935Q247.941 177.771 247.848 177.598Q247.756 177.425 247.681 177.243Q247.605 177.062 247.548 176.874Q247.491 176.686 247.453 176.493Q247.415 176.301 247.395 176.105Q247.376 175.91 247.376 175.713L247.376 21.5111Q247.376 21.3146 247.395 21.1191Q247.415 20.9236 247.453 20.7309Q247.491 20.5382 247.548 20.3502Q247.605 20.1622 247.681 19.9807Q247.756 19.7992 247.848 19.626Q247.941 19.4527 248.05 19.2894Q248.159 19.126 248.284 18.9741Q248.409 18.8223 248.547 18.6834Q248.686 18.5444 248.838 18.4198Q248.99 18.2952 249.153 18.186Q249.317 18.0769 249.49 17.9843Q249.663 17.8917 249.845 17.8165Q250.026 17.7413 250.214 17.6843Q250.402 17.6273 250.595 17.5889Q250.788 17.5506 250.983 17.5313Q251.179 17.5121 251.375 17.5121Z" id="Rectangle-3" fill="#FFFFFF" fill-opacity="0.2784314" fill-rule="evenodd" stroke="none" />
    <g id="Group-4" transform="translate(0 1.6890869)">
      <path d="M0 0L39.1726 84.7612L103.629 60.4757L0 0Z" id="Vector" fill="url(#gradient_1)" fill-rule="evenodd" stroke="none" />
      <path d="M103.629 177.522L103.629 59.9995L38.4604 84.285L103.629 177.522Z" id="Vector-Copy" fill="url(#gradient_2)" fill-rule="evenodd" stroke="none" />
    </g>
    <g id="Group-4-Copy" transform="translate(102.67621 1.6999512)">
      <path d="M103.638 0L64.4622 84.7671L0 60.4799L103.638 0Z" id="Vector" fill="url(#gradient_3)" fill-rule="evenodd" stroke="none" />
      <path d="M6.10352e-05 177.535L3.05176e-05 60.0037L65.1745 84.2908L6.10352e-05 177.535Z" id="Vector-Copy" fill="url(#gradient_4)" fill-rule="evenodd" stroke="none" />
    </g>
  </g>
</svg>